<?xml version="1.0" encoding="utf-8"?>
<svg version="1.1" xmlns="http://www.w3.org/2000/svg" xmlns:xlink="http://www.w3.org/1999/xlink" x="0px" y="0px"
	 viewBox="0 0 648 201" style="enable-background:new 0 0 648 201;" xml:space="preserve">
<style type="text/css">
	.st0{fill:none;stroke:#323031;stroke-width:4;stroke-linecap:square;stroke-miterlimit:10;}
	.st1{fill:#323031;}
	.st2{fill:none;stroke:#323031;stroke-width:4;stroke-miterlimit:10;}
	.st3{fill:url(#SVGID_1_);}
	.st4{fill:#00ADEE;}
	.st5{fill:url(#SVGID_2_);}
	.st6{fill:#FFFFFF;}
</style>
<g id="Border_1_">
	<line id="Bottom_right_line_1_" class="st0" x1="460.87" y1="190.2" x2="596.3" y2="190.2"/>
		<g id="TournamentTitle" class="st1"><path d="M161.61,181.81L161.79,181.81L161.79,183.65L161.61,183.65Q159.88,183.65 158.72,184.21Q157.56,184.77 156.88,185.7Q156.2,186.63 155.91,187.79Q155.72,188.49 155.65,189.22Q155.83,189.02 156.03,188.85Q156.69,188.26 157.53,187.98Q158.37,187.71 159.31,187.71Q160.59,187.71 161.51,188.19Q162.44,188.67 163.03,189.47Q163.63,190.28 163.92,191.28Q164.21,192.28 164.21,193.33Q164.21,194.54 163.87,195.6Q163.53,196.65 162.85,197.45Q162.18,198.24 161.19,198.69Q160.21,199.13 158.91,199.13Q157.53,199.13 156.5,198.57Q155.46,198 154.78,197.05Q154.11,196.1 153.77,194.94Q153.43,193.78 153.43,192.58L153.43,191.56Q153.43,189.76 153.79,188.03Q154.15,186.29 155.05,184.88Q155.94,183.48 157.54,182.65Q159.13,181.81 161.61,181.81ZM155.61,191.83L155.61,192.65Q155.61,193.79 155.87,194.66Q156.14,195.54 156.61,196.13Q157.08,196.73 157.67,197.04Q158.27,197.34 158.91,197.34Q159.66,197.34 160.25,197.05Q160.83,196.77 161.24,196.25Q161.64,195.72 161.85,195.01Q162.06,194.29 162.06,193.44Q162.06,192.68 161.87,191.97Q161.69,191.26 161.3,190.7Q160.91,190.15 160.33,189.82Q159.75,189.5 158.96,189.5Q158.05,189.5 157.27,189.94Q156.5,190.38 156,191.08Q155.75,191.45 155.61,191.83ZM173.29,181.84L178.94,181.84Q180.86,181.84 182.19,182.42Q183.52,183.01 184.22,184.15Q184.91,185.29 184.91,186.96Q184.91,188.13 184.44,189.1Q183.96,190.06 183.09,190.73Q182.46,191.21 181.67,191.52L185.68,198.76L185.68,198.9L183.26,198.9L179.56,191.99L175.55,191.99L175.55,198.9L173.29,198.9L173.29,181.84ZM175.55,190.15L179.01,190.15Q180.23,190.15 181.03,189.72Q181.84,189.29 182.25,188.56Q182.66,187.84 182.66,186.96Q182.66,185.97 182.28,185.24Q181.89,184.5 181.06,184.09Q180.24,183.69 178.94,183.69L175.55,183.69L175.55,190.15ZM198.92,197.06L198.92,198.9L188.08,198.9L188.08,181.84L198.8,181.84L198.8,183.69L190.34,183.69L190.34,189.17L197.72,189.17L197.72,191.01L190.34,191.01L190.34,197.06L198.92,197.06ZM206.34,198.9L201.72,198.9L201.72,181.84L206.55,181.84Q208.22,181.84 209.61,182.39Q210.99,182.95 211.99,184Q212.99,185.05 213.53,186.53Q214.07,188.01 214.07,189.86L214.07,190.88Q214.07,192.74 213.53,194.22Q212.99,195.7 211.98,196.74Q210.96,197.79 209.54,198.34Q208.12,198.9 206.34,198.9ZM203.98,197.06L206.34,197.06Q208.16,197.06 209.38,196.29Q210.6,195.53 211.22,194.14Q211.83,192.75 211.83,190.88L211.83,189.84Q211.83,188.38 211.48,187.23Q211.13,186.09 210.45,185.3Q209.77,184.51 208.79,184.1Q207.81,183.69 206.55,183.69L203.98,183.69L203.98,197.06ZM226.56,194.59Q226.56,193.99 226.38,193.53Q226.2,193.06 225.75,192.69Q225.3,192.31 224.51,191.97Q223.71,191.63 222.51,191.28Q221.24,190.91 220.22,190.44Q219.2,189.98 218.48,189.38Q217.75,188.79 217.36,188.01Q216.98,187.24 216.98,186.24Q216.98,185.25 217.39,184.4Q217.8,183.56 218.56,182.93Q219.33,182.31 220.4,181.95Q221.46,181.6 222.78,181.6Q224.7,181.6 226.04,182.34Q227.38,183.07 228.09,184.25Q228.79,185.42 228.79,186.76L226.54,186.76Q226.54,185.8 226.13,185.05Q225.72,184.31 224.89,183.88Q224.05,183.45 222.78,183.45Q221.57,183.45 220.78,183.82Q220,184.18 219.62,184.8Q219.24,185.42 219.24,186.22Q219.24,186.76 219.47,187.2Q219.69,187.64 220.18,188.01Q220.67,188.39 221.42,188.7Q222.18,189.02 223.23,189.31Q224.69,189.72 225.74,190.23Q226.8,190.73 227.48,191.36Q228.17,191.99 228.5,192.78Q228.84,193.57 228.84,194.56Q228.84,195.61 228.41,196.45Q227.99,197.29 227.21,197.89Q226.42,198.49 225.33,198.81Q224.23,199.13 222.88,199.13Q221.7,199.13 220.56,198.81Q219.41,198.48 218.48,197.82Q217.55,197.17 216.99,196.2Q216.44,195.23 216.44,193.95L218.69,193.95Q218.69,194.83 219.03,195.46Q219.37,196.09 219.96,196.5Q220.55,196.91 221.31,197.1Q222.06,197.29 222.88,197.29Q224.07,197.29 224.89,196.97Q225.71,196.64 226.13,196.03Q226.56,195.42 226.56,194.59ZM246.77,194.59Q246.77,193.99 246.58,193.53Q246.4,193.06 245.95,192.69Q245.5,192.31 244.71,191.97Q243.92,191.63 242.71,191.28Q241.44,190.91 240.43,190.44Q239.41,189.98 238.68,189.38Q237.95,188.79 237.57,188.01Q237.18,187.24 237.18,186.24Q237.18,185.25 237.59,184.4Q238,183.56 238.77,182.93Q239.53,182.31 240.6,181.95Q241.67,181.6 242.98,181.6Q244.9,181.6 246.24,182.34Q247.59,183.07 248.29,184.25Q248.99,185.42 248.99,186.76L246.74,186.76Q246.74,185.8 246.33,185.05Q245.92,184.31 245.09,183.88Q244.26,183.45 242.98,183.45Q241.77,183.45 240.99,183.82Q240.2,184.18 239.82,184.8Q239.44,185.42 239.44,186.22Q239.44,186.76 239.67,187.2Q239.9,187.64 240.38,188.01Q240.87,188.39 241.63,188.7Q242.38,189.02 243.44,189.31Q244.89,189.72 245.94,190.23Q247,190.73 247.69,191.36Q248.37,191.99 248.7,192.78Q249.04,193.57 249.04,194.56Q249.04,195.61 248.62,196.45Q248.19,197.29 247.41,197.89Q246.62,198.49 245.53,198.81Q244.43,199.13 243.09,199.13Q241.9,199.13 240.76,198.81Q239.62,198.48 238.69,197.82Q237.75,197.17 237.2,196.2Q236.64,195.23 236.64,193.95L238.89,193.95Q238.89,194.83 239.23,195.46Q239.57,196.09 240.16,196.5Q240.75,196.91 241.51,197.1Q242.27,197.29 243.09,197.29Q244.27,197.29 245.09,196.97Q245.91,196.64 246.34,196.03Q246.77,195.42 246.77,194.59ZM261.68,181.84L263.93,181.84L263.93,193.38Q263.93,195.3 263.08,196.58Q262.22,197.86 260.81,198.5Q259.4,199.13 257.75,199.13Q256.01,199.13 254.61,198.5Q253.21,197.86 252.4,196.58Q251.58,195.3 251.58,193.38L251.58,181.84L253.82,181.84L253.82,193.38Q253.82,194.72 254.31,195.58Q254.8,196.45 255.69,196.87Q256.57,197.29 257.75,197.29Q258.93,197.29 259.81,196.87Q260.7,196.45 261.19,195.58Q261.68,194.72 261.68,193.38L261.68,181.84ZM267.48,181.84L270.39,181.84L275.98,195.75L281.56,181.84L284.46,181.84L284.46,198.9L282.21,198.9L282.21,192.24L282.44,185.11L276.82,198.9L275.11,198.9L269.51,185.08L269.73,192.24L269.73,198.9L267.48,198.9L267.48,181.84ZM288.44,181.84L291.34,181.84L296.93,195.75L302.51,181.84L305.42,181.84L305.42,198.9L303.17,198.9L303.17,192.24L303.39,185.11L297.78,198.9L296.07,198.9L290.46,185.08L290.69,192.24L290.69,198.9L288.44,198.9L288.44,181.84ZM320.23,197.06L320.23,198.9L309.39,198.9L309.39,181.84L320.11,181.84L320.11,183.69L311.65,183.69L311.65,189.17L319.03,189.17L319.03,191.01L311.65,191.01L311.65,197.06L320.23,197.06ZM323.03,181.84L328.68,181.84Q330.6,181.84 331.93,182.42Q333.26,183.01 333.96,184.15Q334.66,185.29 334.66,186.96Q334.66,188.13 334.18,189.1Q333.71,190.06 332.83,190.73Q332.21,191.21 331.41,191.52L335.42,198.76L335.42,198.9L333,198.9L329.3,191.99L325.29,191.99L325.29,198.9L323.03,198.9L323.03,181.84ZM325.29,190.15L328.75,190.15Q329.97,190.15 330.78,189.72Q331.59,189.29 332,188.56Q332.41,187.84 332.41,186.96Q332.41,185.97 332.02,185.24Q331.63,184.5 330.81,184.09Q329.98,183.69 328.68,183.69L325.29,183.69L325.29,190.15ZM354.07,193.47L356.32,193.47Q356.15,195.09 355.4,196.37Q354.65,197.65 353.28,198.39Q351.91,199.13 349.86,199.13Q348.36,199.13 347.13,198.57Q345.91,198.01 345.03,196.97Q344.15,195.94 343.67,194.48Q343.2,193.02 343.2,191.22L343.2,189.53Q343.2,187.73 343.67,186.27Q344.15,184.81 345.04,183.77Q345.94,182.73 347.21,182.17Q348.47,181.6 350.05,181.6Q351.99,181.6 353.32,182.33Q354.66,183.06 355.4,184.34Q356.15,185.62 356.32,187.31L354.07,187.31Q353.91,186.11 353.46,185.25Q353.02,184.39 352.2,183.92Q351.38,183.45 350.05,183.45Q348.92,183.45 348.06,183.89Q347.19,184.32 346.61,185.12Q346.03,185.92 345.74,187.03Q345.45,188.14 345.45,189.5L345.45,191.22Q345.45,192.48 345.71,193.58Q345.98,194.68 346.52,195.51Q347.05,196.35 347.89,196.82Q348.72,197.29 349.86,197.29Q351.3,197.29 352.15,196.84Q353.01,196.38 353.45,195.53Q353.89,194.67 354.07,193.47ZM369.16,181.84L371.41,181.84L371.41,193.38Q371.41,195.3 370.55,196.58Q369.69,197.86 368.28,198.5Q366.87,199.13 365.22,199.13Q363.48,199.13 362.08,198.5Q360.68,197.86 359.87,196.58Q359.05,195.3 359.05,193.38L359.05,181.84L361.29,181.84L361.29,193.38Q361.29,194.72 361.78,195.58Q362.28,196.45 363.16,196.87Q364.05,197.29 365.22,197.29Q366.4,197.29 367.29,196.87Q368.17,196.45 368.66,195.58Q369.16,194.72 369.16,193.38L369.16,181.84ZM381.25,192.21L377.22,192.21L377.22,198.9L374.96,198.9L374.96,181.84L381.25,181.84Q383.18,181.84 384.52,182.51Q385.86,183.17 386.55,184.35Q387.24,185.53 387.24,187.04Q387.24,188.68 386.55,189.84Q385.86,191 384.52,191.61Q383.18,192.21 381.25,192.21ZM377.22,190.37L381.25,190.37Q382.57,190.37 383.39,189.95Q384.21,189.53 384.6,188.78Q384.98,188.03 384.98,187.06Q384.98,186.19 384.6,185.41Q384.21,184.64 383.39,184.16Q382.57,183.69 381.25,183.69L377.22,183.69L377.22,190.37ZM406.67,197.12L406.67,198.9L395.5,198.9L395.5,197.34L401.09,191.12Q402.12,189.97 402.69,189.17Q403.26,188.36 403.49,187.73Q403.71,187.09 403.71,186.42Q403.71,185.58 403.37,184.89Q403.02,184.2 402.36,183.79Q401.69,183.38 400.74,183.38Q399.6,183.38 398.85,183.82Q398.09,184.26 397.71,185.05Q397.34,185.83 397.34,186.85L395.17,186.85Q395.17,185.41 395.8,184.22Q396.44,183.02 397.68,182.31Q398.92,181.6 400.74,181.6Q402.36,181.6 403.5,182.17Q404.65,182.74 405.27,183.77Q405.88,184.79 405.88,186.16Q405.88,186.91 405.63,187.68Q405.38,188.45 404.94,189.21Q404.5,189.97 403.92,190.71Q403.34,191.45 402.68,192.16L398.11,197.12L406.67,197.12ZM419.69,189.01L419.69,191.61Q419.69,193.71 419.31,195.15Q418.94,196.59 418.23,197.47Q417.53,198.35 416.54,198.74Q415.55,199.13 414.31,199.13Q413.32,199.13 412.49,198.89Q411.66,198.64 411,198.1Q410.34,197.55 409.87,196.67Q409.4,195.79 409.15,194.54Q408.91,193.29 408.91,191.61L408.91,189.01Q408.91,186.91 409.29,185.49Q409.67,184.08 410.37,183.21Q411.07,182.35 412.06,181.98Q413.05,181.6 414.28,181.6Q415.28,181.6 416.12,181.84Q416.96,182.08 417.61,182.61Q418.27,183.13 418.73,183.99Q419.19,184.85 419.44,186.09Q419.69,187.33 419.69,189.01ZM417.51,191.96L417.51,188.65Q417.51,187.5 417.37,186.62Q417.24,185.75 416.98,185.13Q416.72,184.51 416.33,184.12Q415.94,183.74 415.43,183.55Q414.92,183.37 414.28,183.37Q413.51,183.37 412.91,183.66Q412.32,183.95 411.91,184.57Q411.51,185.19 411.3,186.2Q411.09,187.2 411.09,188.65L411.09,191.96Q411.09,193.11 411.22,193.99Q411.36,194.87 411.62,195.51Q411.89,196.15 412.28,196.56Q412.67,196.97 413.18,197.16Q413.69,197.35 414.31,197.35Q415.11,197.35 415.7,197.05Q416.3,196.74 416.7,196.09Q417.11,195.44 417.31,194.42Q417.51,193.39 417.51,191.96ZM433.64,197.12L433.64,198.9L422.48,198.9L422.48,197.34L428.07,191.12Q429.1,189.97 429.67,189.17Q430.23,188.36 430.46,187.73Q430.69,187.09 430.69,186.42Q430.69,185.58 430.35,184.89Q430,184.2 429.33,183.79Q428.66,183.38 427.71,183.38Q426.58,183.38 425.82,183.82Q425.07,184.26 424.69,185.05Q424.32,185.83 424.32,186.85L422.15,186.85Q422.15,185.41 422.78,184.22Q423.41,183.02 424.66,182.31Q425.9,181.6 427.71,181.6Q429.33,181.6 430.48,182.17Q431.63,182.74 432.24,183.77Q432.86,184.79 432.86,186.16Q432.86,186.91 432.61,187.68Q432.36,188.45 431.92,189.21Q431.48,189.97 430.9,190.71Q430.32,191.45 429.66,192.16L425.09,197.12L433.64,197.12ZM444.27,181.81L444.46,181.81L444.46,183.65L444.27,183.65Q442.55,183.65 441.39,184.21Q440.23,184.77 439.55,185.7Q438.87,186.63 438.58,187.79Q438.39,188.49 438.32,189.22Q438.5,189.02 438.69,188.85Q439.36,188.26 440.2,187.98Q441.04,187.71 441.98,187.71Q443.25,187.71 444.18,188.19Q445.11,188.67 445.7,189.47Q446.3,190.28 446.59,191.28Q446.87,192.28 446.87,193.33Q446.87,194.54 446.53,195.6Q446.19,196.65 445.52,197.45Q444.85,198.24 443.86,198.69Q442.88,199.13 441.58,199.13Q440.19,199.13 439.16,198.57Q438.13,198 437.45,197.05Q436.77,196.1 436.43,194.94Q436.09,193.78 436.09,192.58L436.09,191.56Q436.09,189.76 436.46,188.03Q436.82,186.29 437.72,184.88Q438.61,183.48 440.21,182.65Q441.8,181.81 444.27,181.81ZM438.27,191.83L438.27,192.65Q438.27,193.79 438.54,194.66Q438.81,195.54 439.28,196.13Q439.75,196.73 440.34,197.04Q440.93,197.34 441.58,197.34Q442.33,197.34 442.91,197.05Q443.5,196.77 443.9,196.25Q444.31,195.72 444.52,195.01Q444.73,194.29 444.73,193.44Q444.73,192.68 444.54,191.97Q444.36,191.26 443.97,190.7Q443.58,190.15 443,189.82Q442.42,189.5 441.62,189.5Q440.72,189.5 439.94,189.94Q439.16,190.38 438.67,191.08Q438.41,191.45 438.27,191.83Z"/></g>
	
	
	
	
	
	
	
	<line id="Bottom_left_line_1_" class="st0" x1="4" y1="190.2" x2="139.43" y2="190.2"/>
	<line id="Right_line" class="st0" x1="596.3" y1="4" x2="596.3" y2="190.2"/>
	<line id="Top_line" class="st0" x1="4" y1="4" x2="596.3" y2="4"/>
	<line id="Left_line" class="st0" x1="4" y1="190.2" x2="4" y2="4"/>
</g>
<g id="ER">
	<g>
		<g>
			<radialGradient id="SVGID_1_" cx="514.8952" cy="95.1373" r="110.679" gradientUnits="userSpaceOnUse">
				<stop  offset="0.25" style="stop-color:#FFFFFF"/>
				<stop  offset="1" style="stop-color:#929497"/>
			</radialGradient>
			<path class="st3" d="M477.1,154.2c-19.1,0-34.1-6.3-44.6-18.7c-9.1-10.9-13.7-24.7-13.7-41.2c0-16.3,4.3-30.7,12.7-42.7
				c9.1-12.8,20.6-19.2,34.4-19.2c15,0,26.7,3.5,34.9,10.4c6.9,5.9,10.4,13.1,10.4,21.4c0,6-1.8,11-5.3,15
				c-3.8,4.4-8.6,6.5-14.6,6.5c-6.7,0-12.1-2.1-16.1-6.2c-3.7-3.6-5.6-8-5.6-13.1c0-4.9,1.7-9.1,5.1-12.4c1.7-1.7,3.8-3,6.1-3.9
				c-2.9,2.2-4.3,5-4.3,8.6c0,3,1.2,5.7,3.6,7.9c2.3,2.2,5.4,3.3,9,3.3c7.1,0,10.8-3.6,10.8-10.6c0-6-2.8-11.6-8.3-16.5
				c-6.4-5.8-14.5-8.7-24-8.7c-12.5,0-22.9,5.7-30.9,16.9c-7.5,10.3-11.3,22.6-11.3,36.6c0,6.6,0.9,13,2.6,18.9l2,6.8v-13.2
				c0-9.2,1.9-17.1,5.7-23.6c3.7-6.4,8.4-9.5,14.2-9.5c6.1,0,9.8,2.5,11.4,7.6c1.7,5.5,3.3,10.9,4.9,16.2l0,0.1l0.1,0.1
				c3.6,6.1,10.8,9.2,21.5,9.2c11.3,0,20.1-3.2,26.2-9.5c5.2-5.4,7.9-12.5,7.9-20.9c0-2.4-0.2-4.7-0.6-6.9c1.6,4.4,2.4,9,2.4,13.9
				c0,10.5-3.6,19.5-10.7,26.9c-7.6,7.9-17.8,11.9-30.3,11.9c-10.3,0-17.4-2.5-21.2-7.5c-2.7-3.5-4.1-9.1-4.1-16.5
				c0-1.2,0.1-2.9,0.2-5c0.1-2.3,0.2-3.9,0.2-4.8c0-4.5-0.6-7.8-1.7-9.8c-1.6-2.9-4.3-4.3-8.2-4.3c-4.6,0-8.7,3.3-12.2,9.8
				c-3.4,6.3-5.1,13.6-5.1,21.6c0,11.1,3.4,20.3,10.1,27.5c8.2,8.6,20.5,13,36.5,13c19.1,0,33.9-5.5,44-16.5
				c8.7-9.4,13.1-21.6,13.1-36.2c0-8.1-1.5-16-4.3-23.4c-1.2-3-2.5-5.9-4.1-8.4c2.9,3.4,5.3,7.3,7.3,11.7c3.6,8,5.5,16.8,5.5,26.2
				c0,16.4-5.1,30.5-15.1,42C512.2,147.7,496.6,154.2,477.1,154.2z"/>
			<path class="st4" d="M459.4,34c-9.3,2-17.2,7.5-23.6,16.5c-7.6,10.5-11.5,23-11.5,37.2c0,6.7,0.9,13.2,2.6,19.1l3.9,13.5v-9.4
				c1.6,6.2,4.6,11.6,8.9,16.2c8.4,8.8,20.9,13.3,37.3,13.3c19.4,0,34.5-5.7,44.7-16.8c8.9-9.6,13.4-22,13.4-36.9
				c0-6.7-1-13.3-3-19.6c3.5,7.8,5.3,16.4,5.3,25.6c0,16.1-5,30-14.9,41.3c-11.1,12.7-26.4,19.1-45.6,19.1
				c-18.8,0-33.6-6.2-43.8-18.3c-8.9-10.7-13.5-24.3-13.5-40.6c0-16.1,4.2-30.3,12.5-42.1C439.8,41.7,448.7,35.6,459.4,34
				 M477.6,34.3c9.3,1.4,16.8,4.5,22.5,9.3c6.8,5.8,10.1,12.5,10.1,20.7c0,5.8-1.7,10.5-5,14.4c-3.7,4.1-8.2,6.1-13.9,6.1
				c-6.5,0-11.5-1.9-15.4-5.9l0,0l0,0c-3.5-3.4-5.3-7.5-5.3-12.4c0-4.7,1.6-8.5,4.8-11.7c0.3-0.3,0.7-0.7,1.1-1
				c-0.7,1.5-1,3.1-1,4.9c0,3.3,1.3,6.2,3.9,8.6c2.5,2.4,5.8,3.5,9.7,3.5c7.6,0,11.8-4.1,11.8-11.6c0-6.3-2.9-12.1-8.6-17.2
				C488,38.3,483.1,35.7,477.6,34.3 M454.6,68.7c2.9,1,4.7,3,5.7,6.2c1.7,5.5,3.3,10.9,4.9,16.2l0.1,0.2l0.1,0.2
				c3.7,6.4,11.3,9.7,22.3,9.7c11.6,0,20.7-3.3,27-9.8c4.4-4.6,7.1-10.3,7.9-17c0,0.8,0.1,1.6,0.1,2.5c0,10.2-3.5,19-10.4,26.2
				c-7.4,7.7-17.4,11.6-29.6,11.6c-10,0-16.8-2.4-20.4-7.1c-2.6-3.3-3.9-8.7-3.9-15.9c0-1.1,0.1-2.8,0.2-5c0.1-2.3,0.2-3.9,0.2-4.8
				c0-4.7-0.6-8.1-1.8-10.3C456.4,70.5,455.6,69.5,454.6,68.7 M465.9,31.5c-14.2,0-25.9,6.6-35.2,19.7
				c-8.6,12.3-12.8,26.7-12.8,43.3c0,16.8,4.6,30.7,13.9,41.8c10.7,12.7,25.8,19,45.3,19c19.9,0,35.6-6.6,47.1-19.8
				c10.2-11.7,15.4-25.9,15.4-42.6c0-9.6-1.8-18.5-5.5-26.6c-3.9-8.6-9.4-15.3-16.5-20.1c4.8,4.4,8.6,10.3,11.4,17.7
				c2.9,7.3,4.3,15,4.3,23.1c0,14.4-4.3,26.2-12.8,35.5c-9.9,10.8-24.4,16.2-43.3,16.2c-15.8,0-27.8-4.2-35.8-12.7
				c-6.6-7-9.8-15.9-9.8-26.8c0-7.9,1.7-15,5-21.2c3.3-6.2,7.1-9.3,11.3-9.3c3.5,0,5.9,1.3,7.3,3.8c1.1,1.9,1.6,5,1.6,9.4
				c0,1-0.1,2.5-0.2,4.8c-0.1,2.2-0.2,3.9-0.2,5.1c0,7.7,1.4,13.4,4.3,17.1c4,5.3,11.4,7.9,22,7.9c12.9,0,23.2-4.1,31.1-12.2
				c7.3-7.6,10.9-16.8,10.9-27.6c0-9.5-2.9-18-8.7-25.5c3.3,5.6,4.9,11.7,4.9,18.5c0,8.2-2.5,15-7.6,20.2
				c-5.9,6.1-14.4,9.2-25.5,9.2c-10.4,0-17.2-2.9-20.6-8.7c-1.6-5.3-3.2-10.6-4.9-16.2c-1.7-5.5-5.8-8.3-12.4-8.3
				c-6.1,0-11.1,3.3-15.1,10c-3.9,6.7-5.9,14.7-5.9,24.1c0,2,0,4.1,0,6.2c-1.7-5.8-2.5-12-2.5-18.6c0-13.9,3.7-25.9,11.1-36.1
				c7.8-11,17.9-16.5,30.1-16.5c9.3,0,17.1,2.8,23.3,8.4c5.3,4.8,7.9,10,7.9,15.8c0,6.4-3.3,9.6-9.8,9.6c-3.4,0-6.2-1-8.3-3
				c-2.2-2-3.2-4.4-3.2-7.1c0-5.9,4.4-9.7,13.2-11.4c-7.1,0.1-12.6,2.1-16.6,6c-3.6,3.6-5.4,8-5.4,13.2c0,5.4,2,10,5.9,13.8
				c4.2,4.3,9.8,6.5,16.8,6.5c6.2,0,11.4-2.3,15.4-6.8c3.7-4.2,5.5-9.5,5.5-15.7c0-8.7-3.6-16.1-10.8-22.2
				C493,35,481.2,31.5,465.9,31.5L465.9,31.5z"/>
		</g>
		<g>
			<radialGradient id="SVGID_2_" cx="515.2896" cy="95.1248" r="110.7087" gradientUnits="userSpaceOnUse">
				<stop  offset="0.25" style="stop-color:#FFFFFF"/>
				<stop  offset="1" style="stop-color:#929497"/>
			</radialGradient>
			<path class="st5" d="M600,153.2c-10.6,0-21.1-8.5-31.3-25.4c-10.2-16.7-15.4-33.3-15.4-49.4c0-10.1,2.5-17.9,7.4-23.4
				c2.7-3,6-5.2,10-6.6c-9,4.6-13.5,13-13.5,25.2c0,13.2,4.8,27.3,14.2,41.9c9.6,14.9,18.2,22.2,26.3,22.2c7.6,0,14.4-5.1,20.1-15.2
				c5.2-9.2,8-20,8.4-32.2c0.2,2.8,0.3,5.9,0.3,9.1c0,14.5-2,26.7-5.9,36.4C615.7,147.5,609,153.2,600,153.2z M544.5,153.2
				c-13.3,0-24-5.4-31.7-15.9c-7-9.6-10.6-21.8-10.6-36.3c0-6.8,0.9-13.5,2.6-19.9c-0.6,3.5-0.9,7.1-0.9,10.8
				c0,12.4,3.4,23.2,10,32.2c6.7,9.1,14.9,13.7,24.3,13.7c8.8,0,10.7-3.7,10.7-6.9c0-5.3-2-11.3-5.8-17.8
				c-6.2-10.5-9.7-16.7-10.6-18.4c-3.7-8.4-5.6-17.8-5.6-28.1c0-12.5,5-22,14.7-28.1c7.2-4.4,15.6-6.7,25-6.7
				c15.7,0,28.2,4.5,37.2,13.5c7.7,7.8,11.6,17.2,11.6,28c0,7.4-2,13.7-6,18.7c-4.2,5.2-9.9,7.9-17,7.9c-8.3,0-15.4-3-21-8.9
				c-5.2-5.5-7.8-11.9-7.8-19c0-5.6,1.9-10.4,5.6-14.2c2.4-2.6,5.5-4.5,9.1-5.9c-1.6,1.1-3.1,2.5-4.3,4c-2.7,3.3-4,7.1-4,11.3
				c0,4.4,1.4,8.1,4.1,11.3c2.8,3.2,6.4,4.8,10.7,4.8c8.9,0,13.4-5.2,13.4-15.6c0-8-2.7-15.7-8-22.9c-5.8-7.9-12.8-12-20.8-12
				c-10.3,0-19.1,2.4-26.1,7.1c-9,6.2-13.6,15.6-13.6,27.9c0,8.8,2.8,17.3,8.3,25.3c5,6.2,10,12.7,15.1,19.2
				c5.2,7.8,7.9,16.3,7.9,25.4c0,3.7-1.1,6.9-3.1,9.7C554.9,151.4,550.6,153.2,544.5,153.2z"/>
			<path class="st4" d="M579.7,34.2c9.4,1.9,17.2,5.9,23.3,12c7.5,7.6,11.3,16.8,11.3,27.3c0,7.2-1.9,13.3-5.7,18.1
				c-4.1,5-9.4,7.5-16.2,7.5c-8.2,0-14.8-2.8-20.3-8.6c-5.1-5.4-7.5-11.3-7.5-18.3c0-5.4,1.7-9.8,5.3-13.5c0.8-0.9,1.7-1.7,2.7-2.4
				c-2.4,3.3-3.6,7-3.6,11c0,4.6,1.5,8.6,4.4,11.9c3,3.4,6.8,5.1,11.4,5.1c6.6,0,14.4-2.9,14.4-16.6c0-8.2-2.7-16.1-8.1-23.5
				C587.6,39.6,583.8,36.2,579.7,34.2 M543.6,38.6c-0.3,0.2-0.6,0.4-0.9,0.6c-9.3,6.4-14,16.1-14,28.7c0,9,2.8,17.7,8.4,25.9l0,0.1
				l0,0.1c4.9,6.2,10,12.6,15,19.1c5.1,7.6,7.7,16,7.7,24.8c0,3.5-1,6.5-2.9,9.1c-2.7,3.6-6.8,5.4-12.5,5.4
				c-13.2,0-23.3-5.1-30.9-15.5c-6.9-9.4-10.4-21.5-10.4-35.7c0-0.7,0-1.3,0-2c1.1,9.7,4.4,18.3,9.8,25.7
				c6.9,9.4,15.3,14.1,25.1,14.1c9.6,0,11.7-4.3,11.7-7.9c0-5.5-2-11.7-6-18.3c-7.7-13-10-17.2-10.5-18.3
				c-3.7-8.2-5.5-17.6-5.5-27.7c0-12.4,4.7-21.3,14.3-27.3C542.6,39.1,543.1,38.8,543.6,38.6 M559.1,58.7c-2,4.2-3,9.2-3,15
				c0,13.4,4.8,27.7,14.3,42.4c9.8,15.2,18.7,22.6,27.1,22.6c8,0,15.1-5.3,21-15.8c3-5.3,5.2-11.2,6.7-17.6
				c-0.5,11.7-2.4,21.8-5.8,30c-4.6,11.3-11,16.8-19.5,16.8c-10.2,0-20.4-8.4-30.5-24.9c-10.1-16.5-15.2-32.9-15.2-48.9
				C554.3,70.4,555.9,63.8,559.1,58.7 M566.5,30.9c-9.6,0-18.1,2.3-25.5,6.8c-10.1,6.3-15.2,16-15.2,29c0,10.4,1.9,19.9,5.7,28.5
				c0.8,1.8,4.4,8,10.6,18.5c3.8,6.3,5.7,12.1,5.7,17.3c0,3.9-3.2,5.9-9.7,5.9c-9.1,0-16.9-4.4-23.5-13.3
				c-6.6-8.9-9.8-19.4-9.8-31.6c0-16.2,5.9-30.7,17.8-43.5c-7,6.2-12.3,14.2-16,23.9c-3.6,9.1-5.4,18.6-5.4,28.7
				c0,14.8,3.6,27.1,10.8,36.9c7.9,10.9,18.8,16.3,32.5,16.3c6.3,0,11-2.1,14.1-6.2c2.2-3,3.3-6.4,3.3-10.3c0-9.3-2.7-18-8.1-26
				c-5-6.4-10-12.8-15.1-19.2c-5.4-7.8-8.1-16.1-8.1-24.7c0-12,4.4-21.1,13.2-27.1c6.9-4.6,15.4-7,25.5-7c7.7,0,14.4,3.9,20,11.6
				c5.2,7.1,7.8,14.5,7.8,22.3c0,9.7-4.1,14.6-12.4,14.6c-4,0-7.3-1.5-9.9-4.4c-2.6-3-3.9-6.5-3.9-10.6c0-3.9,1.3-7.4,3.8-10.6
				c3-3.6,7.1-6.1,12.5-7.6c-8.2,0.8-14.5,3.6-18.9,8.2c-3.9,4-5.9,9-5.9,14.9c0,7.4,2.7,13.9,8.1,19.7c5.8,6.1,13,9.2,21.7,9.2
				c7.4,0,13.3-2.7,17.8-8.2c4.1-5.2,6.2-11.6,6.2-19.3c0-11.1-4-20.7-11.9-28.7C595.2,35.5,582.6,30.9,566.5,30.9L566.5,30.9z
				 M582.8,45.6c-10,0-17.7,2.9-23,8.8c-5.1,5.7-7.6,13.7-7.6,24.1c0,16.4,5.2,33,15.5,49.9c10.5,17.2,21.2,25.8,32.2,25.8
				c9.4,0,16.5-6,21.4-18.1c4-9.8,6-22.1,6-36.8c0-12.6-1.3-22.1-4-28.5c1.2,5.4,1.7,10.9,1.7,16.5c0,13.3-2.8,24.9-8.3,34.7
				c-5.5,9.8-12,14.7-19.3,14.7c-7.6,0-16.1-7.2-25.4-21.7c-9.4-14.5-14-28.3-14-41.4c0-17.3,9.2-26.7,27.7-28.1
				C584.8,45.6,583.8,45.6,582.8,45.6L582.8,45.6z"/>
		</g>
	</g>
</g>
<g id="_x26_">
	<g>
		<rect x="494.7" y="75" class="st1" width="40.7" height="40.7"/>
		<g>
			<path class="st6" d="M523.7,111.7c-2.4,0-4.8-0.4-7-1.2l-0.1,0l-0.1,0c-1.8,0.4-3.8,0.6-5.9,0.6c-3.7,0-6.8-0.9-9.4-2.6
				c-2.6-1.7-3.8-3.7-3.8-5.9c0-2.5,1.6-4.8,4.9-6.8l0.3-0.2l-0.1-0.4c-0.6-1.9-0.9-3.7-0.9-5.5c0-3.7,1.1-6.7,3.4-8.9
				c2.5-2.5,6.1-3.8,10.8-3.8c2.8,0,5.2,0.5,7.1,1.5c2.1,1.1,3.1,2.7,3.1,4.9c0,2-1.7,3.8-4.9,5.5c-2.3,1.2-5.8,2.5-10.5,3.8
				c-2.4,0.6-4.4,1.5-5.9,2.4l-0.4,0.2l0.2,0.4c2.6,5.7,6.8,9.4,12.6,10.9l0.1,0l0.1,0c2.6-0.6,4.7-1.7,6.2-3.3c1.3-1.5,2-3.1,2-4.8
				c0-1.6-0.6-2.9-1.7-4c-1.1-1.1-2.7-1.6-4.7-1.6c-1.3,0-2.4,0.1-3.4,0.4c1.1-0.4,2.3-0.6,3.6-0.6c2.5,0,4.4,0.7,5.9,2.1
				c1.3,1.3,2,2.9,2,4.9c0,2.3-0.9,4.5-2.8,6.4l-1.1,1.2l1.6-0.4c2.1-0.5,3.8-1.5,5.1-3c1.2-1.4,1.8-3,1.8-4.9
				c0-1.7-0.5-3.2-1.5-4.5c0.4,0.5,0.8,1,1.1,1.6c1.6,3.1,1.6,6.3-0.1,9.9C529.5,109.9,527,111.7,523.7,111.7z M502.3,97
				c-0.9,1-1.4,2.1-1.4,3.2c0,1.5,0.7,2.9,2.2,4.1c1.4,1.2,3.3,2,5.6,2.4l1.8,0.4l-1.4-1.2c-2.7-2.4-4.7-5.4-6.1-8.7l-0.3-0.8
				L502.3,97z M512.7,77.7c-3.2,0-5.8,1-7.6,3.1c-1.6,1.9-2.5,4.3-2.5,7.3c0,2,0.4,4.1,1.1,6.1l0.2,0.5l0.5-0.2
				c1.7-0.8,3.6-1.5,5.8-2.2c7-2,10.5-4.8,10.5-8.5c0-1.8-0.7-3.3-2-4.4C517.4,78.3,515.3,77.7,512.7,77.7z"/>
			<path class="st4" d="M515.8,77.5c2.7,0,5,0.5,6.9,1.5c1.9,1,2.9,2.5,2.9,4.4c0,1.8-1.6,3.5-4.7,5.1c-1,0.5-2.3,1.1-3.8,1.7
				c2.8-1.7,4.3-3.8,4.3-6.3c0-1.9-0.7-3.6-2.2-4.8C518.2,78.3,517.1,77.8,515.8,77.5C515.7,77.5,515.7,77.5,515.8,77.5 M502.2,88.4
				c0,2,0.4,4,1.2,6l0.4,1l0,0L504,96c2.6,5.8,7,9.6,12.9,11.2l0.2,0.1l0.2-0.1c2.7-0.6,4.9-1.8,6.5-3.4c1.4-1.6,2.1-3.3,2.1-5.2
				c0-1-0.2-2-0.7-2.8c1,1.1,1.4,2.4,1.4,4.1c0,2.2-0.9,4.2-2.6,6.1l-2.3,2.4l3.2-0.7c2.2-0.5,4-1.6,5.3-3.2c0.9-1,1.4-2.1,1.7-3.3
				c0,1.6-0.5,3.2-1.3,4.9c-1.7,3.4-4,5.1-7,5.1c-2.4,0-4.7-0.4-6.8-1.1l-0.3-0.1l-0.3,0.1c-1.7,0.4-3.7,0.6-5.8,0.6
				c-3.6,0-6.6-0.9-9.1-2.5c-2.4-1.6-3.6-3.4-3.6-5.5c0-2.2,1.5-4.3,4.4-6.2l-0.3,0.3c-1,1.1-1.5,2.3-1.5,3.5c0,1.6,0.8,3.1,2.4,4.4
				c1.5,1.2,3.4,2.1,5.8,2.6l3.6,0.7l-2.7-2.5c-2.6-2.4-4.6-5.2-5.9-8.5l-0.5-1.2l0,0l-0.2-0.7c-0.6-1.8-0.8-3.6-0.8-5.4
				C502.1,89.3,502.1,88.8,502.2,88.4 M515.8,76.5c-4.9,0-8.6,1.3-11.1,3.9c-2.3,2.4-3.5,5.4-3.5,9.3c0,1.9,0.3,3.8,0.9,5.7
				c-3.4,2.1-5.1,4.6-5.1,7.2c0,2.4,1.3,4.5,4,6.3c2.7,1.8,5.9,2.7,9.7,2.7c2.2,0,4.2-0.2,6-0.6c2.3,0.8,4.7,1.2,7.2,1.2
				c3.5,0,6.1-1.9,7.9-5.7c1.8-3.7,1.8-7.1,0.1-10.4c-1.9-3.5-5.4-5.3-10.7-5.3c-0.3,0-0.5,0-0.8,0c3.5,0.2,6.3,1.1,8.3,2.8
				c1.8,1.6,2.7,3.4,2.7,5.6c0,1.7-0.6,3.2-1.7,4.5c-1.2,1.4-2.8,2.4-4.8,2.8c1.9-2,2.9-4.3,2.9-6.8c0-2.1-0.7-3.8-2.2-5.2
				c-1.6-1.5-3.6-2.2-6.2-2.2c-2.6,0-4.8,0.7-6.4,2.1c-1.5,1.3-2.2,2.8-2.2,4.5c0,2.5,1.3,4.3,4,5.4c-2.1-1.1-3.2-2.9-3.2-5.3
				c0-1.6,0.6-2.8,1.8-3.8c1.4-1.2,3.3-1.7,5.8-1.7c1.8,0,3.3,0.5,4.3,1.5c1.1,1,1.6,2.2,1.6,3.6c0,1.6-0.6,3.1-1.9,4.5
				c-1.4,1.5-3.4,2.5-6,3.1c-5.6-1.5-9.7-5.1-12.3-10.7c1.5-0.9,3.4-1.7,5.8-2.4c4.8-1.3,8.3-2.6,10.6-3.8c3.5-1.8,5.2-3.8,5.2-6
				c0-2.3-1.1-4.1-3.4-5.3C521.1,77,518.7,76.5,515.8,76.5L515.8,76.5z M504.3,94.1c-0.7-2-1.1-4-1.1-6c0-2.9,0.8-5.2,2.3-7
				c1.7-2,4.1-2.9,7.2-2.9c2.5,0,4.4,0.5,5.8,1.6c1.2,1,1.8,2.4,1.8,4c0,3.4-3.4,6.1-10.2,8C507.9,92.5,506,93.3,504.3,94.1
				L504.3,94.1z M508.9,106.3c-2.2-0.5-4-1.2-5.4-2.3c-1.4-1.1-2-2.3-2-3.7c0-1,0.4-2,1.2-2.9C504,100.8,506.1,103.8,508.9,106.3
				L508.9,106.3z"/>
		</g>
	</g>
</g>
<g id="Play-ER">
	<g>
		<g>
			<path class="st1" d="M48.2,108.4V80.3c0-6.2,0-11.2,0-15.2c0-3.9,0-7.1,0-9.5s0-4.3-0.1-5.8c-0.1-1.4-0.1-2.8-0.2-4.1
				c-0.2-2.8-0.7-4.8-1.6-6.2c-0.9-1.4-2.6-2.3-5.3-2.9c-0.6-0.2-1.5-0.3-2.6-0.4c-1.1-0.1-2.1-0.1-2.8-0.1c-0.9,0-1.3-0.3-1.3-1
				c0-0.9,0.9-1.3,2.6-1.3c1.8,0,3.7,0,5.7,0.1c2,0.1,3.8,0.1,5.6,0.2c1.8,0.1,3.2,0.1,4.5,0.2c1.2,0.1,2,0.1,2.3,0.1
				c1.8,0,4.7-0.1,8.6-0.2c3.9-0.2,7.8-0.2,11.5-0.2c5,0,9.2,0.4,12.7,1.1c3.5,0.7,6.4,1.6,8.7,2.6c2.3,1,4.2,1.9,5.4,3
				c1.3,1,2.2,1.8,2.9,2.5c1.8,1.7,3.6,4.2,5.4,7.6c1.8,3.4,2.6,7.2,2.6,11.4c0,5.6-1,10.8-3,15.5c-2,4.7-4.7,8.7-8.2,12.1
				c-3.5,3.4-7.7,5.9-12.5,7.7c-4.8,1.8-10,2.7-15.7,2.7c-0.4,0-1,0-1.7,0c-0.7,0-1.3-0.1-1.7-0.2c-0.4,0-0.8-0.1-1.2-0.2
				c-0.4-0.2-0.6-0.5-0.6-0.9c0-0.6,0.3-1,0.9-1.2c0.6-0.2,1.7-0.2,3.4-0.2c3.8,0,7.5-0.7,10.9-2c3.4-1.3,6.3-3.2,8.8-5.5
				c2.4-2.3,4.4-5.1,5.8-8.2c1.4-3.1,2.2-6.6,2.2-10.3c0-1.3-0.1-2.9-0.2-4.8s-0.5-4-1.1-6.2c-0.6-2.2-1.5-4.5-2.6-6.9
				c-1.2-2.3-2.8-4.6-5-6.7c-2.1-2.1-4.3-3.8-6.5-4.9c-2.2-1.1-4.3-1.9-6.2-2.4c-2-0.5-3.8-0.7-5.4-0.7s-2.9,0-3.8,0
				c-1.4,0-2.7,0.1-3.9,0.2c-1.2,0.2-2.2,0.4-3,0.7c-0.9,0.3-1.3,1.3-1.3,3v65.7c0,7.7,0,14.5,0.1,20.5c0.1,6,0.3,10.7,0.7,14.1
				c0.2,2.3,0.7,4.3,1.4,5.9c0.7,1.6,2.3,2.6,4.8,2.9c1.2,0.2,2.5,0.4,3.9,0.5c1.4,0.1,2.5,0.2,3.3,0.2c0.9,0,1.3,0.3,1.3,1
				c0,0.9-0.9,1.3-2.6,1.3c-2.2,0-4.5,0-6.7-0.1c-2.2-0.1-4.3-0.1-6.2-0.2c-1.9-0.1-3.4-0.1-4.6-0.2c-1.2-0.1-1.9-0.1-2.2-0.1
				c-0.1,0-0.7,0-1.9,0.1c-1.2,0.1-2.6,0.1-4.2,0.2c-1.6,0.1-3.3,0.1-5,0.2c-1.7,0.1-3.1,0.1-4.3,0.1c-1.7,0-2.6-0.4-2.6-1.3
				c0-0.6,0.4-1,1.3-1c0.7,0,1.5-0.1,2.4-0.2c0.9-0.1,1.6-0.3,2.4-0.5c1.6-0.3,2.7-1.3,3.3-2.9c0.6-1.6,1-3.6,1.4-5.9
				c0.4-3.4,0.7-8.1,0.7-14.1C48.2,122.9,48.2,116.1,48.2,108.4z"/>
		</g>
		<g>
			<path class="st1" d="M157.3,91.3v24.3c0,5,0,9.3,0.1,12.9c0.1,3.6,0.2,6.5,0.4,8.9c0.2,2.4,0.5,4.3,0.9,5.7
				c0.4,1.4,0.9,2.4,1.5,3c1.2,1.2,3.2,2,6.1,2.5c2.9,0.5,7.1,0.7,12.6,0.7c3.7,0,7.1-0.2,10-0.6c2.9-0.4,5.2-1.6,6.9-3.6
				c0.9-1.1,1.6-2.3,2.2-3.6c0.6-1.3,1-2.7,1.2-4.1c0.2-1.2,0.7-1.8,1.4-1.8c0.6,0,1,0.7,1,2.1c0,0.3-0.1,1-0.2,2.2
				c-0.1,1.1-0.3,2.3-0.5,3.7c-0.2,1.3-0.4,2.7-0.6,4.2c-0.2,1.4-0.5,2.6-0.8,3.6c-0.2,0.9-0.5,1.5-0.7,2c-0.3,0.5-0.7,0.8-1.3,1
				c-0.6,0.2-1.4,0.4-2.5,0.5c-1.1,0.1-2.6,0.2-4.5,0.2c-9.8,0-17.9-0.2-24.4-0.5c-3.2-0.1-6-0.2-8.5-0.2c-2.5-0.1-4.7-0.1-6.9-0.1
				c-0.3,0-1,0-2.1,0c-1.1,0-2.3,0.1-3.7,0.2c-1.5,0.1-2.9,0.2-4.3,0.2c-1.4,0.1-2.7,0.1-3.8,0.1c-1.5,0-2.2-0.4-2.2-1.1
				c0-0.7,0.4-1.1,1.1-1.1c0.6,0,1.4-0.1,2.2-0.2c0.8-0.1,1.5-0.3,2.2-0.5c1.4-0.3,2.3-1.1,2.6-2.3c0.4-1.2,0.7-2.8,1-4.9
				c0.4-2.8,0.7-6.7,0.7-11.8c0.1-5.1,0.1-11,0.1-17.6v-24c0-5.2,0-9.5,0-12.8c0-3.3,0-6,0-8.1c0-2.1,0-3.7-0.1-5
				c-0.1-1.2-0.1-2.4-0.2-3.4c-0.2-2.3-0.6-4.1-1.3-5.3c-0.6-1.2-2.1-1.9-4.5-2.2c-0.5-0.1-1.3-0.2-2.3-0.2c-1-0.1-1.8-0.1-2.5-0.1
				c-0.7,0-1.1-0.4-1.1-1.1c0-0.7,0.7-1.1,2.2-1.1c1.6,0,3.3,0,5.1,0.1c1.8,0.1,3.5,0.1,5,0.1c1.5,0,2.8,0,3.9,0.1
				c1.1,0.1,1.7,0.1,1.9,0.1c0.1,0,0.8,0,2.1-0.1c1.3-0.1,2.7-0.1,4.3-0.1s3.2,0,5-0.1c1.7-0.1,3.1-0.1,4.2-0.1
				c1.5,0,2.2,0.4,2.2,1.1c0,0.6-0.4,1-1.1,1c-0.5,0-1.2,0-2.1,0.1c-0.9,0.1-1.7,0.1-2.6,0.2c-2.1,0.4-3.5,1.2-4.1,2.3
				c-0.6,1.1-1,2.9-1.2,5.4c0,1.1,0,2.2-0.1,3.4c-0.1,1.2-0.1,2.9-0.1,5c0,2.1,0,4.8,0,8.1C157.3,81.8,157.3,86.1,157.3,91.3z"/>
		</g>
		<g>
			<g id="six-reds">
			<defs>
				<radialGradient id="ballRed" cx="0.35" cy="0.3" r="0.8">
					<stop offset="0" stop-color="#ff9a9a"/>
					<stop offset="0.28" stop-color="#ef3b3b"/>
					<stop offset="0.72" stop-color="#bf1414"/>
					<stop offset="1" stop-color="#6f0a0a"/>
				</radialGradient>
			</defs>
			<circle cx="253" cy="64" r="21" fill="url(#ballRed)"/>
			<circle cx="232" cy="100.4" r="21" fill="url(#ballRed)"/>
			<circle cx="274" cy="100.4" r="21" fill="url(#ballRed)"/>
			<circle cx="211" cy="136.8" r="21" fill="url(#ballRed)"/>
			<circle cx="253" cy="136.8" r="21" fill="url(#ballRed)"/>
			<circle cx="295" cy="136.8" r="21" fill="url(#ballRed)"/>
			<ellipse cx="245" cy="56" rx="7" ry="4.5" fill="#ffffff" opacity="0.5"/>
			<ellipse cx="224" cy="92.4" rx="7" ry="4.5" fill="#ffffff" opacity="0.5"/>
			<ellipse cx="266" cy="92.4" rx="7" ry="4.5" fill="#ffffff" opacity="0.5"/>
			<ellipse cx="203" cy="128.8" rx="7" ry="4.5" fill="#ffffff" opacity="0.5"/>
			<ellipse cx="245" cy="128.8" rx="7" ry="4.5" fill="#ffffff" opacity="0.5"/>
			<ellipse cx="287" cy="128.8" rx="7" ry="4.5" fill="#ffffff" opacity="0.5"/>
		</g>
		</g>
		<g>
			<path class="st1" d="M339.8,131.1v-11.7c0-3.6-0.2-6.4-0.7-8.2c-0.5-1.9-1.3-3.8-2.3-5.7c-0.2-0.3-0.9-1.4-1.9-3.1
				c-1.1-1.8-2.4-3.9-4-6.5s-3.3-5.3-5.2-8.2c-1.9-2.9-3.7-5.8-5.5-8.6c-1.8-2.8-3.5-5.4-5-7.7c-1.5-2.3-2.6-4.1-3.4-5.3
				c-1.7-2.6-3.4-4.6-5-6.2c-1.6-1.6-3-2.8-4.3-3.7c-1.1-0.6-2.2-1.1-3.4-1.4c-1.2-0.3-2-0.5-2.6-0.5c-1,0-1.4-0.4-1.4-1.3
				c0-0.6,0.6-1,1.8-1c0.6,0,1.7,0,3.2,0.1c1.5,0.1,3,0.1,4.6,0.1c1.5,0,2.9,0,4.1,0.1c1.2,0.1,1.9,0.1,2.1,0.1c0.5,0,2-0.1,4.4-0.2
				c2.4-0.1,5-0.2,7.7-0.2c0.9,0,1.4,0.1,1.6,0.2c0.2,0.2,0.3,0.4,0.3,0.7c0,0.4-0.7,0.9-2.2,1.4c-1.2,0.5-1.8,1.3-1.8,2.2
				s0.2,1.9,0.6,2.7c0.4,0.9,0.8,1.7,1.4,2.6l25.6,42.3c0.4-1,1.3-2.5,2.5-4.6c1.2-2.1,2.6-4.5,4.2-7.2c1.5-2.7,3.2-5.4,5-8.3
				c1.8-2.9,3.4-5.6,5-8.2c1.5-2.6,2.9-4.9,4.1-6.9c1.2-2,2-3.3,2.4-4.1c0.9-1.5,1.5-2.8,1.8-4c0.4-1.2,0.6-2.2,0.6-3
				c0-1.9-0.7-3.1-2.2-3.5c-1.4-0.3-2.1-0.9-2.1-1.6c0-0.5,0.7-0.8,2.2-0.8c1.8,0,3.8,0.1,5.8,0.2c2.1,0.1,3.4,0.2,3.9,0.2
				c0.2,0,0.9,0,2.2-0.1c1.2-0.1,2.6-0.1,4.1-0.1c1.5,0,3,0,4.4-0.1c1.4-0.1,2.5-0.1,3.1-0.1c1.2,0,1.8,0.3,1.8,0.8
				c0,0.3-0.2,0.6-0.5,1c-0.3,0.3-0.7,0.5-1.3,0.5c-0.9,0-1.9,0.1-3,0.4c-1.2,0.3-2.3,0.7-3.5,1.4c-1.4,0.9-2.5,1.7-3.4,2.6
				c-0.9,0.9-2.1,2.3-3.6,4.1c-0.7,1-1.9,2.5-3.4,4.7c-1.5,2.2-3.3,4.7-5.1,7.6c-1.9,2.9-3.8,5.9-5.8,9.1c-2,3.2-3.9,6.3-5.7,9.2
				c-1.8,2.9-3.3,5.5-4.6,7.7c-1.3,2.2-2.2,3.8-2.6,4.8c-1.2,2.5-1.8,4.8-1.8,6.9c0,2.2,0,4.4,0,6.6v11.7c0,1.2,0,3,0.1,5.6
				c0.1,2.6,0.2,5.2,0.4,8c0.2,2,0.6,3.6,1.3,4.9c0.6,1.2,2,2,4.2,2.3c1,0.2,2.1,0.4,3.4,0.5c1.3,0.1,2.3,0.2,3,0.2
				c0.7,0,1.1,0.4,1.1,1.1c0,0.7-0.7,1.1-2.2,1.1c-1.9,0-3.9,0-5.9-0.1c-2-0.1-3.9-0.1-5.6-0.2c-1.7-0.1-3.1-0.1-4.2-0.2
				c-1.1-0.1-1.8-0.1-2-0.1c-0.2,0-0.8,0-1.8,0.1c-1,0.1-2.2,0.1-3.7,0.2c-1.4,0.1-2.9,0.1-4.4,0.2c-1.5,0.1-2.8,0.1-3.8,0.1
				c-1.5,0-2.2-0.4-2.2-1.1c0-0.7,0.4-1.1,1.1-1.1c0.6,0,1.3-0.1,2.1-0.2c0.7-0.1,1.4-0.3,2.1-0.5c1.5-0.3,2.5-1.1,3-2.3
				c0.5-1.2,0.9-2.8,1.1-4.9c0.2-2.8,0.3-5.4,0.3-8C339.8,134.1,339.8,132.3,339.8,131.1z"/>
		</g>
		<g>
			<path class="st1" d="M383.6,107.6h22.3c0.8,0,1.4,0.1,1.9,0.2c0.5,0.1,0.8,0.4,0.8,0.7c0,0.5-0.3,0.9-1,1.1
				c-0.7,0.2-1.4,0.3-2.1,0.4c-0.4,0.1-1.2,0.2-2.2,0.3c-1.1,0.1-2.3,0.3-3.7,0.5c-1.4,0.2-2.9,0.4-4.4,0.7
				c-1.6,0.2-3.1,0.5-4.5,0.7c-1.4,0.2-2.7,0.4-3.9,0.6c-1.2,0.2-2,0.4-2.4,0.5c-0.8,0.2-1.6,0.5-2.3,0.8c-0.7,0.3-1.1,0.5-1.4,0.5
				c-0.5,0-0.6-0.4-0.4-1.3l1.3-5c0.1-0.3,0.3-0.5,0.5-0.6C382.4,107.6,382.9,107.6,383.6,107.6z"/>
		</g>
		<g>
			<path class="st1" d="M486.6,155.7c-6,0-11.3-0.1-15.7-0.2c-4.4-0.1-8.2-0.2-11.3-0.3c-3.1-0.2-5.7-0.3-7.7-0.4
				c-2-0.1-3.6-0.1-4.8-0.1h-2.1c-1.2,0-2.6,0.1-4.3,0.2c-1.6,0-3.3,0.1-5,0.2c-1.8,0.1-3.2,0.2-4.3,0.2c-2.5,0-3.1-1-3.1-1.8
				c0-0.4,0.2-1.5,1.8-1.5c0.7,0,1.5-0.1,2.3-0.2c0.8-0.1,1.6-0.3,2.3-0.5c1.5-0.3,2.4-1.1,2.9-2.6c0.6-1.6,1-3.5,1.3-5.8
				c0.4-3.4,0.7-8.1,0.7-14.1c0.1-6.1,0.1-13,0.1-20.5V55.6c0-2.4,0-4.3-0.1-5.7c-0.1-1.4-0.1-2.8-0.2-4.1c-0.2-2.7-0.7-4.7-1.5-6
				c-0.8-1.3-2.4-2.1-4.9-2.6c-0.6-0.2-1.5-0.3-2.6-0.4c-1.1-0.1-2-0.1-2.8-0.1c-1.6,0-1.8-1-1.8-1.5c0-0.8,0.5-1.8,3.1-1.8h5.8
				c2,0,3.9,0.1,5.8,0.2l6.5,0.3l17.3,0c4.5,0,8.4,0,12.1-0.1c3.8-0.1,6.2-0.1,7.1-0.1c3-0.2,5.3-0.5,6.8-0.8
				c0.4-0.1,0.7-0.2,0.9-0.4c0.4-0.3,0.9-0.4,1.4-0.4c0.5,0,1.1,0.3,1.1,1.9c0,0.6-0.2,1.4-0.5,2.6c-0.3,1.1-0.6,2.8-0.8,4.9
				c0,0.4,0,1.1-0.1,2.1c-0.1,1-0.1,2-0.2,3.1c-0.1,1.1-0.2,2.2-0.2,3.2c-0.1,1.1-0.1,1.8-0.3,2.3c-0.1,0.5-0.3,0.9-0.4,1.3
				c-0.3,0.7-0.9,0.9-1.2,0.9c-0.7,0-1.8-0.3-1.8-2.6c0-0.5-0.1-1.3-0.2-2.5c-0.1-1.1-0.4-2.1-0.8-3c-0.5-1.2-1.4-2.2-2.7-3.1
				c-1.3-0.9-4.1-1.6-8.3-2.1c-0.6-0.1-2.1-0.2-4.3-0.2l-7-0.2c-2.5-0.1-4.8-0.1-6.8-0.1h-3.8c-0.1,0-0.5,0-0.5,1.1v44.1
				c0,1.1,0.3,1.1,0.5,1.1h12.1c2.9,0,5.6,0,8.1-0.1c2.5-0.1,4.3-0.1,5.2-0.2c1.9-0.2,3.4-0.4,4.6-0.6c1.1-0.2,1.9-0.7,2.6-1.4
				c1.7-2,2.3-2.2,2.8-2.2c0.4,0,1.3,0.2,1.3,1.8c0,0.6-0.2,1.6-0.5,3c-0.3,1.4-0.6,3.4-0.8,6c-0.1,0.9-0.2,1.8-0.2,2.8l-0.2,3
				c-0.1,1-0.1,1.9-0.2,2.7c-0.1,0.8-0.1,1.3-0.1,1.6c0,0.7-0.1,1.3-0.2,2.1c-0.2,1.3-1,1.5-1.5,1.5c-0.5,0-1.6-0.2-1.6-1.9
				c0-0.8,0-1.6-0.1-2.4c-0.1-0.8-0.2-1.7-0.5-2.7c-0.3-1.1-1-2.2-2-3.2c-1-1-3-1.7-5.9-2c-1.1-0.1-2.7-0.2-5-0.3
				c-2.3-0.1-4.7-0.2-7-0.2c-2.4-0.1-4.6-0.1-6.7-0.2c-2.1-0.1-3.4-0.1-4.1-0.1c-0.5,0-0.6,0.1-0.6,0.6v41.3
				c0.1,2.7,0.4,4.9,0.9,6.6c0.4,1.6,1.3,2.8,2.5,3.7c1.3,0.9,3,1.5,5.3,1.8c2.3,0.3,5.4,0.5,9.4,0.5c2.1,0,4.7-0.1,7.6-0.2
				c2.9-0.2,5.4-0.7,7.5-1.5c2-0.8,3.5-2.1,4.5-3.7c1-1.7,1.8-4.2,2.3-7.4c0.1-0.7,0.6-2.8,1.9-2.8c0.8,0,1.3,0.5,1.4,1.2
				c0.1,0.6,0.1,1.1,0.1,1.6c0,0.3-0.1,1.2-0.2,2.5c-0.2,1.3-0.3,2.8-0.6,4.5l-0.6,4.9c-0.2,1.6-0.4,2.9-0.7,3.8
				c-0.3,1.2-0.7,2-1,2.6c-0.4,0.6-0.9,1.1-1.7,1.4c-0.7,0.3-1.6,0.5-2.6,0.5C489.5,155.7,488.2,155.7,486.6,155.7z"/>
			<path class="st6" d="M492.9,32.7c0.4,0,0.6,0.5,0.6,1.4c0,0.5-0.2,1.4-0.5,2.5s-0.6,2.8-0.8,5c0,0.4,0,1.1-0.1,2.1
				c-0.1,1-0.1,2-0.2,3.1c-0.1,1.1-0.2,2.2-0.2,3.2c-0.1,1-0.1,1.7-0.2,2.2c-0.1,0.4-0.2,0.8-0.4,1.2c-0.2,0.4-0.4,0.6-0.7,0.6
				c-0.9,0-1.3-0.7-1.3-2.1c0-0.5-0.1-1.4-0.2-2.6c-0.1-1.2-0.4-2.2-0.8-3.2c-0.5-1.3-1.5-2.4-2.9-3.3c-1.4-0.9-4.2-1.6-8.5-2.2
				c-0.6-0.1-2.1-0.2-4.3-0.2c-2.2-0.1-4.6-0.1-7-0.2c-2.5-0.1-4.7-0.1-6.8-0.1c-2.1,0-3.3,0-3.8,0c-0.6,0-1,0.5-1,1.6v44.1
				c0,1.1,0.3,1.6,1,1.6c0.5,0,2,0,4.3,0c2.3,0,4.9,0,7.7,0c2.8,0,5.5,0,8.1-0.1c2.6-0.1,4.3-0.1,5.3-0.2c1.9-0.2,3.5-0.4,4.6-0.6
				c1.2-0.2,2.1-0.7,2.9-1.6c1.2-1.4,2-2.1,2.4-2.1c0.5,0,0.8,0.4,0.8,1.3c0,0.5-0.2,1.5-0.5,2.9c-0.3,1.4-0.6,3.4-0.8,6.1
				c-0.1,0.9-0.2,1.8-0.2,2.8c-0.1,1-0.1,2-0.2,3c-0.1,1-0.1,1.9-0.2,2.7c-0.1,0.8-0.1,1.4-0.1,1.7c0,0.6-0.1,1.3-0.2,2
				c-0.1,0.7-0.4,1-1,1c-0.7,0-1.1-0.5-1.1-1.4c0-0.9,0-1.7-0.1-2.5c-0.1-0.8-0.2-1.7-0.6-2.8c-0.3-1.2-1-2.3-2.1-3.4
				c-1.1-1.1-3.1-1.8-6.2-2.2c-1.1-0.1-2.7-0.2-5-0.3c-2.3-0.1-4.6-0.2-7-0.2c-2.4-0.1-4.6-0.1-6.7-0.2c-2.1-0.1-3.4-0.1-4.1-0.1
				c-0.7,0-1.1,0.4-1.1,1.1v14c0,1.4,0,3.4,0,6.1c0,2.7,0,5.4,0,8.3c0,2.9,0,5.5,0,8c0,2.4,0,4.1,0,4.9c0.1,2.8,0.4,5,0.9,6.7
				c0.5,1.7,1.4,3,2.7,4c1.3,1,3.2,1.6,5.5,1.9c2.3,0.3,5.5,0.5,9.4,0.5c2.1,0,4.7-0.1,7.7-0.2c3-0.2,5.5-0.7,7.7-1.5
				c2.1-0.9,3.7-2.2,4.8-3.9c1.1-1.8,1.9-4.3,2.4-7.6c0.3-1.6,0.8-2.4,1.4-2.4c0.5,0,0.8,0.3,0.9,0.8c0.1,0.5,0.1,1.1,0.1,1.6
				c0,0.3-0.1,1.1-0.2,2.5c-0.2,1.3-0.3,2.8-0.6,4.5c-0.2,1.7-0.4,3.3-0.6,4.9c-0.2,1.6-0.4,2.8-0.6,3.7c-0.3,1.1-0.6,1.9-1,2.5
				c-0.3,0.5-0.8,1-1.4,1.2c-0.6,0.3-1.4,0.4-2.4,0.5c-1,0.1-2.2,0.1-3.8,0.1c-6.1,0-11.3-0.1-15.7-0.2c-4.4-0.1-8.2-0.2-11.3-0.3
				c-3.1-0.2-5.6-0.3-7.7-0.4c-2-0.1-3.6-0.1-4.8-0.1c-0.2,0-0.9,0-2.1,0c-1.2,0-2.6,0.1-4.3,0.2c-1.6,0-3.3,0.1-5,0.2
				c-1.7,0.1-3.1,0.2-4.3,0.2c-1.7,0-2.6-0.4-2.6-1.3c0-0.6,0.4-1,1.3-1c0.7,0,1.5-0.1,2.4-0.2c0.9-0.1,1.6-0.3,2.4-0.5
				c1.6-0.3,2.7-1.3,3.3-2.9c0.6-1.6,1-3.6,1.4-5.9c0.4-3.4,0.7-8.1,0.7-14.1c0.1-6,0.1-12.9,0.1-20.5V80.3c0-6.2,0-11.2,0-15.2
				c0-3.9,0-7.1,0-9.5c0-2.4,0-4.3-0.1-5.8c-0.1-1.4-0.1-2.8-0.2-4.1c-0.2-2.8-0.7-4.8-1.6-6.2c-0.9-1.4-2.6-2.3-5.3-2.9
				c-0.6-0.2-1.5-0.3-2.6-0.4c-1.1-0.1-2.1-0.1-2.8-0.1c-0.9,0-1.3-0.3-1.3-1c0-0.9,0.9-1.3,2.6-1.3c1.8,0,3.7,0,5.8,0
				c2,0,3.9,0.1,5.8,0.2l6.5,0.3c0.3,0,2.2,0,5.7,0c3.5,0,7.3,0,11.7,0c4.3,0,8.4,0,12.1-0.1c3.8-0.1,6.2-0.1,7.1-0.1
				c3.1-0.2,5.4-0.5,6.9-0.8c0.4-0.1,0.8-0.3,1.1-0.5C492.1,32.8,492.4,32.7,492.9,32.7 M492.9,31.7c-0.6,0-1.2,0.2-1.7,0.5
				c-0.2,0.2-0.5,0.3-0.8,0.3c-1.4,0.3-3.7,0.6-6.7,0.8c-1,0-3.2,0-7.1,0.1c-3.7,0.1-7.7,0.1-12.1,0.1h-11.7h-5.7l-6.5-0.3
				c-1.8-0.1-3.8-0.2-5.8-0.2h-5.8c-3.1,0-3.6,1.4-3.6,2.3c0,0.9,0.6,2,2.3,2c0.7,0,1.6,0,2.7,0.1c1,0.1,1.8,0.2,2.4,0.3l0.1,0
				l0.1,0c2.4,0.5,3.9,1.3,4.6,2.4c0.8,1.2,1.2,3.2,1.5,5.8c0.1,1.3,0.2,2.6,0.2,4c0.1,1.4,0.1,3.4,0.1,5.7v9.5v15.2v28.1
				c0,7.6,0,14.5-0.1,20.5c-0.1,5.9-0.3,10.7-0.7,14c-0.3,2.2-0.7,4.2-1.3,5.7c-0.5,1.3-1.3,2-2.5,2.2l0,0l0,0
				c-0.7,0.2-1.4,0.4-2.2,0.4c-0.8,0.1-1.6,0.2-2.3,0.2c-1.7,0-2.3,1-2.3,2c0,0.9,0.5,2.3,3.6,2.3c1.2,0,2.6-0.1,4.4-0.2
				c1.7-0.1,3.3-0.2,4.9-0.2h0l0,0c1.7-0.1,3.1-0.2,4.3-0.2h2.1c1.2,0,2.8,0,4.8,0.1c2,0.1,4.6,0.2,7.6,0.4c3.2,0.1,7,0.2,11.3,0.3
				c4.5,0.1,9.8,0.2,15.8,0.2c1.6,0,2.9,0,3.9-0.1c1.1-0.1,2-0.3,2.7-0.6c0.8-0.4,1.5-0.9,1.9-1.6c0.4-0.6,0.7-1.5,1.1-2.7
				c0.2-1,0.4-2.2,0.7-3.9c0.2-1.6,0.4-3.2,0.6-4.9c0.2-1.7,0.4-3.1,0.6-4.5c0.2-1.8,0.2-2.4,0.2-2.6c0-0.6,0-1.1-0.1-1.7
				c-0.1-1.1-0.8-1.7-1.9-1.7c-1.8,0-2.3,2.4-2.4,3.2c-0.5,3.2-1.3,5.6-2.3,7.3c-1,1.6-2.4,2.7-4.3,3.5c-2,0.8-4.5,1.3-7.4,1.4
				c-3,0.2-5.5,0.2-7.6,0.2c-3.9,0-7-0.2-9.3-0.5c-2.2-0.3-3.9-0.9-5.1-1.7c-1.2-0.8-1.9-2-2.3-3.4c-0.5-1.6-0.7-3.8-0.8-6.5l0-4.9
				v-8v-8.3v-6.1v-14c0,0,0-0.1,0-0.1c0,0,0.1,0,0.1,0c0.6,0,1.9,0,4,0.1c2.1,0.1,4.3,0.1,6.7,0.2c2.4,0.1,4.7,0.1,7,0.2
				c2.2,0.1,3.9,0.2,5,0.3c3.5,0.4,5,1.2,5.6,1.9c0.9,1,1.6,2,1.8,3c0.3,1,0.5,1.9,0.5,2.6c0.1,0.8,0.1,1.6,0.1,2.4
				c0,1.8,1.1,2.4,2.1,2.4c0.4,0,1.7-0.1,1.9-1.9c0.1-0.8,0.2-1.5,0.2-2.1c0-0.2,0-0.7,0.1-1.6c0.1-0.8,0.1-1.7,0.2-2.7
				c0.1-1,0.1-2,0.2-3c0.1-1,0.1-1.9,0.2-2.7c0.2-2.6,0.5-4.6,0.8-6c0.3-1.5,0.5-2.5,0.5-3.1c0-2.2-1.5-2.3-1.8-2.3
				c-0.7,0-1.5,0.4-3.2,2.4c-0.6,0.7-1.3,1.1-2.3,1.3c-1.1,0.2-2.7,0.4-4.6,0.6c-0.9,0.1-2.7,0.2-5.2,0.2c-2.5,0.1-5.1,0.1-8,0.1
				h-7.7H455c0-0.1-0.1-0.3-0.1-0.6V41.8c0-0.3,0-0.5,0.1-0.6l3.6,0c2,0,4.3,0,6.8,0.1l1.3,0c2,0,3.9,0.1,5.7,0.1
				c2.7,0.1,3.8,0.2,4.2,0.2c5.1,0.6,7.2,1.4,8.1,2c1.2,0.8,2,1.7,2.5,2.8c0.4,0.9,0.6,1.8,0.7,2.9c0.1,1.2,0.2,2,0.2,2.5
				c0,2.8,1.6,3.1,2.3,3.1c0.7,0,1.3-0.4,1.6-1.2c0.2-0.4,0.3-0.9,0.4-1.3c0.1-0.5,0.2-1.3,0.3-2.3c0.1-1,0.1-2.1,0.2-3.2
				c0.1-1.1,0.2-2.2,0.2-3.2c0.1-1,0.1-1.6,0.1-2.1c0.2-2.1,0.5-3.8,0.8-4.8c0.3-1.2,0.5-2.1,0.5-2.8
				C494.5,31.9,493.4,31.7,492.9,31.7L492.9,31.7z"/>
		</g>
		<g>
			<path class="st1" d="M629.6,155.2c-4.5,0-8-0.2-10.5-0.6c-2.5-0.4-4.8-1.3-6.9-2.5c-3.4-1.8-6.8-4.7-10-8.7
				c-3.2-3.9-7.1-8.9-11.7-15c-1.7-2.3-3.5-4.6-5.1-6.9c-1.7-2.3-3.3-4.6-4.9-6.7c-1.6-2.1-3-4.1-4.3-5.8c-1.4-1.8-2.4-3.2-3.1-4.2
				c-0.5-0.5-1.1-0.7-1.7-0.7l-19.7-0.3c-0.3,0-0.6,0.1-0.6,0.8v3.8c0,8,0,14.7,0.1,20.5c0.1,6,0.3,10.7,0.7,14.1
				c0.2,2.3,0.7,4.2,1.4,5.8c0.7,1.4,2.1,2.3,4.4,2.6c1.2,0.2,2.5,0.4,3.9,0.5c1.4,0.1,2.5,0.2,3.2,0.2c1.6,0,1.8,1,1.8,1.5
				c0,0.8-0.5,1.8-3.1,1.8c-2.2,0-4.5,0-6.7-0.1c-2.2-0.1-4.3-0.1-6.2-0.2c-1.9-0.1-3.4-0.1-4.6-0.2c-1.2-0.1-1.9-0.1-2.1-0.1
				c-2.2,0.1-4.1,0.2-5.7,0.2l-5,0.2c-1.7,0.1-3.2,0.1-4.3,0.1c-2.5,0-3.1-1-3.1-1.8c0-0.4,0.2-1.5,1.8-1.5c0.7,0,1.5-0.1,2.3-0.2
				c0.8-0.1,1.6-0.3,2.3-0.5c1.5-0.3,2.4-1.1,2.9-2.6c0.6-1.6,1-3.5,1.3-5.8c0.4-3.4,0.7-8.1,0.7-14.1c0.1-6.1,0.1-13,0.1-20.5V55.6
				c0-2.4,0-4.3-0.1-5.7c-0.1-1.4-0.1-2.8-0.2-4.1c-0.2-2.7-0.7-4.7-1.5-6c-0.8-1.3-2.4-2.1-4.9-2.6c-0.6-0.2-1.5-0.3-2.6-0.4
				c-1.1-0.1-2-0.1-2.8-0.1c-1.6,0-1.8-1-1.8-1.5c0-0.8,0.5-1.8,3.1-1.8c1.8,0,3.7,0,5.8,0.1c2,0.1,3.9,0.1,5.7,0.2
				c1.8,0.1,3.3,0.1,4.5,0.2c1.2,0.1,1.9,0.1,2.1,0.1c0.4,0,1.4,0,2.9-0.1c1.5-0.1,3.3-0.1,5.3-0.2c2-0.1,3.9-0.1,5.8-0.2
				c1.9-0.1,3.5-0.1,4.8-0.1c5.1,0,10.3,0.4,15.3,1.2c5.1,0.8,9.9,2.8,14.2,5.9c1,0.8,2.1,1.8,3.4,3.2c1.3,1.4,2.5,3,3.7,4.8
				c1.1,1.8,2.1,4,2.9,6.3c0.8,2.4,1.2,5,1.2,7.8c0,6-1.5,12.1-4.4,18.2c-2.8,5.9-7.8,12.3-14.8,18.8l17.8,22.6
				c5.4,6.9,10.5,12.9,15.1,17.9c4.3,4.5,8.1,7.5,11.3,8.8c3.2,1.4,5.9,2.2,7.9,2.5c1.4,0.2,2.7,0.3,3.8,0.4
				c1.1,0.1,1.8,0.1,2.4,0.1c1.7,0,1.9,1,1.9,1.5c0,0.8-0.4,1.3-1.2,1.5c-0.6,0.2-1.6,0.3-3.2,0.3H629.6z M562.7,39.6
				c-2.4,0-4.6,0.1-6.5,0.3c-1.9,0.2-3.3,0.4-4.1,0.6c-0.6,0.2-0.9,0.7-0.9,1.4v52.2c0,0.7,0.3,1.1,0.9,1.5c1.1,0.7,3.3,1.3,6.5,1.8
				c3.2,0.5,6.6,0.7,10.1,0.7c1.9,0,3.9-0.2,6-0.6c2-0.4,4-1.2,5.7-2.4c2.7-1.9,5-4.9,6.8-9c1.8-4.1,2.8-9.2,2.8-15.2
				c0-9.8-2.4-17.6-7.2-23.2C577.8,42.4,571.1,39.6,562.7,39.6z"/>
			<path class="st6" d="M563.5,34c5.1,0,10.2,0.4,15.3,1.2c5.1,0.8,9.7,2.7,14,5.8c1,0.7,2.1,1.8,3.4,3.1c1.3,1.3,2.5,2.9,3.6,4.7
				c1.1,1.8,2.1,3.9,2.9,6.2c0.8,2.3,1.2,4.9,1.2,7.7c0,6-1.4,12-4.3,18c-2.9,6-7.9,12.3-15,18.9c6.6,8.4,12.6,16.1,18.1,23
				c5.4,6.9,10.5,12.9,15.2,17.9c4.4,4.6,8.2,7.6,11.5,8.9c3.3,1.4,6,2.2,8,2.6c1.5,0.2,2.8,0.3,3.8,0.4c1.1,0.1,1.9,0.1,2.4,0.1
				c1,0,1.4,0.3,1.4,1c0,0.5-0.3,0.9-0.8,1c-0.5,0.2-1.5,0.2-3,0.2h-11.3c-4.5,0-7.9-0.2-10.4-0.6c-2.5-0.4-4.7-1.2-6.7-2.4
				c-3.4-1.8-6.7-4.7-9.9-8.5c-3.2-3.9-7.1-8.9-11.7-14.9c-1.7-2.2-3.4-4.5-5.1-6.9c-1.7-2.3-3.3-4.6-4.9-6.7
				c-1.5-2.1-3-4.1-4.3-5.8c-1.3-1.8-2.4-3.2-3.1-4.2c-0.6-0.6-1.3-1-2.1-1l-19.6-0.3c-0.7,0-1.1,0.4-1.1,1.3v3.8
				c0,7.7,0,14.5,0.1,20.5c0.1,6,0.3,10.7,0.7,14.1c0.2,2.3,0.7,4.3,1.4,5.9c0.7,1.6,2.3,2.6,4.8,2.9c1.2,0.2,2.5,0.4,3.9,0.5
				c1.4,0.1,2.5,0.2,3.3,0.2c0.9,0,1.3,0.3,1.3,1c0,0.9-0.9,1.3-2.6,1.3c-2.2,0-4.5,0-6.7-0.1c-2.2-0.1-4.3-0.1-6.2-0.2
				c-1.9-0.1-3.4-0.1-4.6-0.2c-1.2-0.1-1.9-0.1-2.2-0.1c-2.2,0.1-4.2,0.2-5.8,0.2c-1.6,0.1-3.3,0.1-5,0.2c-1.7,0.1-3.1,0.1-4.3,0.1
				c-1.7,0-2.6-0.4-2.6-1.3c0-0.6,0.4-1,1.3-1c0.7,0,1.5-0.1,2.4-0.2c0.9-0.1,1.6-0.3,2.4-0.5c1.6-0.3,2.7-1.3,3.3-2.9
				c0.6-1.6,1-3.6,1.4-5.9c0.4-3.4,0.7-8.1,0.7-14.1c0.1-6,0.1-12.9,0.1-20.5V80.3c0-6.2,0-11.2,0-15.2c0-3.9,0-7.1,0-9.5
				c0-2.4,0-4.3-0.1-5.8c-0.1-1.4-0.1-2.8-0.2-4.1c-0.2-2.8-0.7-4.8-1.6-6.2c-0.9-1.4-2.6-2.3-5.3-2.9c-0.6-0.2-1.5-0.3-2.6-0.4
				c-1.1-0.1-2.1-0.1-2.8-0.1c-0.9,0-1.3-0.3-1.3-1c0-0.9,0.9-1.3,2.6-1.3c1.8,0,3.7,0,5.8,0.1c2,0.1,3.9,0.1,5.7,0.2
				c1.8,0.1,3.2,0.1,4.5,0.2c1.2,0.1,1.9,0.1,2.2,0.1c0.4,0,1.4,0,3-0.1c1.5-0.1,3.3-0.1,5.3-0.2c2-0.1,3.9-0.1,5.8-0.2
				C560.6,34,562.2,34,563.5,34 M568.6,98.7c1.9,0,3.9-0.2,6.1-0.6c2.1-0.4,4.1-1.2,5.9-2.5c2.8-1.9,5.1-5,6.9-9.2
				c1.9-4.2,2.8-9.3,2.8-15.4c0-10-2.5-17.8-7.3-23.5c-4.9-5.6-11.7-8.5-20.3-8.5c-2.5,0-4.6,0.1-6.5,0.3c-1.9,0.2-3.3,0.4-4.2,0.6
				c-0.9,0.3-1.3,1-1.3,1.9v52.2c0,0.9,0.4,1.5,1.1,1.9c1.2,0.7,3.4,1.4,6.6,1.8C561.7,98.4,565.1,98.7,568.6,98.7 M563.5,33
				c-1.3,0-2.8,0-4.8,0.1c-1.9,0.1-3.9,0.1-5.8,0.2c-2,0.1-3.7,0.1-5.3,0.2c-1.9,0.1-2.7,0.1-2.9,0.1c-0.2,0-0.8,0-2.1-0.1
				c-1.2-0.1-2.7-0.1-4.5-0.2c-1.8-0.1-3.7-0.1-5.7-0.2c-2.1-0.1-4-0.1-5.8-0.1c-3.1,0-3.6,1.4-3.6,2.3c0,0.9,0.6,2,2.3,2
				c0.7,0,1.6,0,2.7,0.1c1,0.1,1.8,0.2,2.4,0.3l0.1,0l0.1,0c2.4,0.5,3.9,1.3,4.6,2.4c0.8,1.2,1.2,3.2,1.5,5.8c0.1,1.3,0.2,2.6,0.2,4
				c0.1,1.4,0.1,3.4,0.1,5.7v9.5v15.2v28.1c0,7.6,0,14.5-0.1,20.5c-0.1,5.9-0.3,10.7-0.7,14c-0.3,2.2-0.7,4.2-1.3,5.7
				c-0.5,1.3-1.3,2-2.5,2.2l0,0l0,0c-0.7,0.2-1.4,0.4-2.2,0.4c-0.8,0.1-1.6,0.2-2.3,0.2c-1.7,0-2.3,1-2.3,2c0,0.9,0.5,2.3,3.6,2.3
				c1.2,0,2.6,0,4.3-0.1l0.8,0l4.1-0.1c1.6-0.1,3.5-0.1,5.8-0.2c0,0,0.4,0,2.1,0.1c1.2,0.1,2.8,0.1,4.6,0.2c1.9,0.1,3.9,0.1,6.2,0.2
				c2.3,0.1,4.5,0.1,6.7,0.1c3.1,0,3.6-1.4,3.6-2.3c0-0.9-0.6-2-2.3-2c-0.7,0-1.8-0.1-3.2-0.2c-1.4-0.1-2.7-0.3-3.8-0.5l0,0l0,0
				c-2.1-0.3-3.4-1-4-2.3c-0.7-1.5-1.1-3.4-1.3-5.6c-0.4-3.4-0.7-8.1-0.7-14.1c-0.1-5.9-0.1-12.6-0.1-20.5v-3.8c0-0.1,0-0.2,0-0.3
				c0,0,0.1,0,0.1,0l19.6,0.3c0.5,0,0.9,0.2,1.3,0.6c0.7,1.1,1.8,2.4,3.1,4.2c1.3,1.7,2.7,3.7,4.3,5.8c1.5,2.1,3.2,4.4,4.9,6.7
				c1.7,2.3,3.4,4.6,5.1,6.9c4.6,6,8.5,11.1,11.7,15c3.3,4,6.7,6.9,10.2,8.8c2.1,1.2,4.5,2.1,7,2.5c2.5,0.4,6.1,0.7,10.6,0.7H641
				c1.6,0,2.7-0.1,3.3-0.3c1-0.3,1.5-1,1.5-2c0-0.5-0.2-2-2.4-2c-0.5,0-1.3,0-2.3-0.1c-1-0.1-2.3-0.2-3.7-0.4
				c-1.9-0.3-4.5-1.1-7.7-2.5c-3.2-1.3-6.9-4.3-11.2-8.7c-4.6-5-9.7-10.9-15.1-17.8l-6-7.7l-11.5-14.6c6.8-6.4,11.7-12.7,14.6-18.6
				c2.9-6.1,4.4-12.3,4.4-18.4c0-2.9-0.4-5.6-1.3-8c-0.8-2.4-1.8-4.6-3-6.4c-1.1-1.9-2.4-3.5-3.7-4.9c-1.3-1.4-2.5-2.4-3.5-3.2
				c-4.4-3.2-9.2-5.2-14.4-6C573.8,33.4,568.6,33,563.5,33L563.5,33z M552.3,41c0.8-0.2,2.1-0.4,4-0.6c1.9-0.2,4-0.3,6.4-0.3
				c8.3,0,14.9,2.7,19.5,8.1c4.7,5.4,7.1,13.1,7.1,22.8c0,5.9-0.9,10.9-2.7,15c-1.8,4-4,7-6.6,8.8c-1.7,1.2-3.5,2-5.5,2.3
				c-2.1,0.4-4,0.5-5.9,0.5c-3.4,0-6.8-0.2-10-0.7c-3.9-0.6-5.5-1.2-6.2-1.7l0,0l0,0c-0.4-0.2-0.6-0.6-0.6-1V42
				C551.7,41.4,551.9,41.1,552.3,41L552.3,41z"/>
		</g>
	</g>
</g>
</svg>
